<svg xmlns="http://www.w3.org/2000/svg" viewBox="0 0 500 500"><g id="freepik--background-simple--inject-149"><path d="M404.57,370.72c126.31-62.88-56.28-112.17-84-150.22C300.69,193.21,332,129.6,298.06,97.36c-35.62-33.9-106.11-29-148.5-6.14-64,34.56-109.4,175.19-38.35,220,53.88,34,122.3-25.57,180.52.63C328.34,328.3,335.81,405,404.57,370.72Z" style="fill:#407BFF"></path><path d="M404.57,370.72c126.31-62.88-56.28-112.17-84-150.22C300.69,193.21,332,129.6,298.06,97.36c-35.62-33.9-106.11-29-148.5-6.14-64,34.56-109.4,175.19-38.35,220,53.88,34,122.3-25.57,180.52.63C328.34,328.3,335.81,405,404.57,370.72Z" style="fill:#fff;opacity:0.9"></path></g><g id="freepik--Shadow--inject-149"><ellipse id="freepik--path--inject-149" cx="250" cy="416.24" rx="193.89" ry="11.32" style="fill:#f5f5f5"></ellipse></g><g id="freepik--Cat--inject-149"><path d="M140.13,159.48c14.92-36,72.29-73.08,136.47-59.28-24.07,7.09-65,57.1-54.68,105.21C179.22,191.92,140.13,159.48,140.13,159.48Z" style="fill:#407BFF"></path><path d="M140.13,159.48c14.92-36,72.29-73.08,136.47-59.28-24.07,7.09-65,57.1-54.68,105.21C179.22,191.92,140.13,159.48,140.13,159.48Z" style="opacity:0.30000000000000004"></path><polygon points="218.4 124.03 222.85 129.98 230.27 129.69 225.99 135.76 228.56 142.73 221.46 140.53 215.63 145.13 215.53 137.7 209.35 133.57 216.38 131.18 218.4 124.03" style="fill:#407BFF"></polygon><polygon points="168.61 132.67 173.06 138.62 180.48 138.33 176.2 144.4 178.77 151.37 171.68 149.17 165.84 153.77 165.74 146.34 159.56 142.22 166.6 139.82 168.61 132.67" style="fill:#407BFF"></polygon><polygon points="201.69 114.64 200.61 120.73 205.03 125.07 198.9 125.94 196.14 131.48 193.42 125.92 187.3 125 191.75 120.7 190.73 114.59 196.19 117.5 201.69 114.64" style="fill:#407BFF"></polygon><polygon points="208.96 146.54 207.89 152.63 212.31 156.97 206.18 157.84 203.42 163.38 200.7 157.81 194.58 156.9 199.03 152.6 198 146.49 203.47 149.4 208.96 146.54" style="fill:#407BFF"></polygon><polygon points="223.06 104.58 224.23 110.66 229.9 113.14 224.49 116.13 223.88 122.29 219.36 118.06 213.31 119.39 215.94 113.78 212.81 108.44 218.95 109.21 223.06 104.58" style="fill:#407BFF"></polygon><polygon points="251.49 106.73 248.18 109.88 248.89 114.4 244.87 112.22 240.79 114.3 241.62 109.8 238.39 106.57 242.92 105.97 245 101.89 246.97 106.02 251.49 106.73" style="fill:#407BFF"></polygon><path d="M268.22,215.79c-7.67,7.65-47.82-1.26-96.31-24.61s-84-50.19-79.28-60,46.09,5.25,96.3,24.6C242.86,176.62,282.55,201.48,268.22,215.79Z" style="fill:#263238"></path><path d="M171,121.67c-6.5-.56-10.89,5.28-13.71,10.25a3.1,3.1,0,0,0,2.09,4.58c14.19,2.85,44.21,12.24,62.18,27.14a3.1,3.1,0,0,0,4.79-1A138.37,138.37,0,0,0,232,147.73a3.12,3.12,0,0,0-1.11-3.49C216.34,133.42,194.28,123.69,171,121.67Z" style="fill:#263238"></path><path d="M190.12,148.89a20.91,20.91,0,0,1-7.18-.9c-8.7-2.72-12.63-10.56-8.76-17.53s14.06-10.43,22.76-7.71a16.48,16.48,0,0,1,5.91,3.18c-7.78-2.13-16.68,1-20.11,7.2S182.62,146.26,190.12,148.89Z" style="fill:#fff"></path><path d="M155.34,164.18a64,64,0,0,0-36.14,13.35,49.72,49.72,0,0,0,25.62,2.12Z" style="fill:#263238"></path><path d="M332.32,366.62l-37.85-24.49c12.49,41.23,11.24,65.94,11.24,65.94s-11.42-9.12-13.26,4.27l22.16,3.9S334.42,384.93,332.32,366.62Z" style="fill:#263238"></path><path d="M155,365.07l-38-34.76c22.52,49.59,26.19,79.43,26.19,79.43s-13-7-12.17,6.5h22.5S160.67,382.74,155,365.07Z" style="fill:#263238"></path><path d="M426.47,225.54c-40.63-20.46-53.55,39-87.81,45l4.06,5.47c21.69-2.36,30.16-17.44,45.56-31.52s40.41-14.32,50.63,12.93c16.63,44.31-3.24,80.25-27.27,88.82-20.11,7.17-15,20.34-2.15,19.42C462.27,361.89,474,249.49,426.47,225.54Z" style="fill:#407BFF"></path><path d="M119.76,208.3c-20.6,87.63-11.82,153.27,51.92,175.54S325.29,413.56,358,376.89s30.89-129.64-72.4-118.4-61.87-51.69-85.35-80.84C178.63,150.75,132.9,152.37,119.76,208.3Z" style="fill:#407BFF"></path><path d="M148.34,205.19c-.12,1.41-2.3,2.37-4.87,2.15s-4.54-1.54-4.42-3,2.3-2.37,4.86-2.15S148.46,203.78,148.34,205.19Z" style="fill:#fff;opacity:0.1"></path><path d="M362.81,281.65v0c-13.69-16.79-38.21-27.38-77.17-23.14-58.15,6.33-70.44-10.85-74.25-32.28-26.83,9.27-10.38,69.12,53.7,91.46C306,331.93,374.88,308.59,362.81,281.65Z" style="opacity:0.1"></path><path d="M187,376.9l-31.65-11.83c20,32,19.59,44.67,19.59,44.67s-13.88-7-11.35,6.5h22.5S193.48,392.9,187,376.9Z" style="fill:#407BFF"></path><path d="M376.51,331.36l-46.58,33.71c13.71,27,10.53,44.67,10.53,44.67s-12.07-7-13,6.5h22.5S372,378,376.51,331.36Z" style="fill:#407BFF"></path><path d="M141,181.67c7.34-1.82,15.06.66,16.06,3.33s-6.66,5.83-11,5.83S135.62,183,141,181.67Z" style="fill:#263238"></path><path d="M157.71,202.74c-4.86,0-9.26-1.12-11.64-3.69-1.69-1.81-3-5.19.05-11a.49.49,0,0,1,.67-.21.5.5,0,0,1,.21.68c-2.26,4.21-2.33,7.51-.2,9.8,4.32,4.66,16.61,4.11,24.72.51a.49.49,0,0,1,.66.25.5.5,0,0,1-.25.66A36.54,36.54,0,0,1,157.71,202.74Z" style="fill:#263238"></path><path d="M136.62,200.51a8,8,0,0,1-4.74-1.24A4.29,4.29,0,0,1,130,196a.5.5,0,0,1,.5-.5.49.49,0,0,1,.5.49,3.31,3.31,0,0,0,1.48,2.49c1.63,1.14,5.24,1.91,13.27-.88a.5.5,0,0,1,.63.31.5.5,0,0,1-.3.64A30.24,30.24,0,0,1,136.62,200.51ZM131,196h0Z" style="fill:#263238"></path><ellipse cx="163.62" cy="177.27" rx="3.41" ry="2.51" transform="translate(-33.4 316.49) rotate(-82.54)" style="fill:#fff"></ellipse><path d="M145.17,176.34c-.11,1.88-1.33,3.4-2.72,3.39s-2.43-1.52-2.32-3.4,1.34-3.39,2.73-3.39S145.28,174.47,145.17,176.34Z" style="fill:#fff"></path><path d="M249.57,375.86c2.87-28.15,78.67-42.6,77.87-14.6S246.82,402.75,249.57,375.86Z" style="opacity:0.1"></path><path d="M427.29,339.43a6.42,6.42,0,0,0-5.23,1.17,40,40,0,0,1-10.42,5.64c-20.11,7.17-15,20.34-2.15,19.42,10.92-.78,20.09-6.21,27.33-14.55v0C437.31,344.5,433.29,340.81,427.29,339.43Z" style="opacity:0.2"></path><path d="M228.2,341.71c-.74-9.43,15-7.95,14.39-1.69C241.86,347.93,228.67,347.76,228.2,341.71Z" style="opacity:0.1"></path><path d="M123.31,299.71c-.74-9.43,15-7.95,14.39-1.69C137,305.93,123.78,305.76,123.31,299.71Z" style="opacity:0.1"></path><path d="M92.11,197.83a.49.49,0,0,1-.44-.26.51.51,0,0,1,.2-.68c17-9.29,42.58-7.63,42.83-7.61a.51.51,0,0,1,.47.53.5.5,0,0,1-.54.47c-.25,0-25.5-1.66-42.28,7.49A.53.53,0,0,1,92.11,197.83Z" style="fill:#263238"></path><path d="M102.67,204.17a.51.51,0,0,1-.4-.2.5.5,0,0,1,.09-.7c11.87-9.2,29.59-11.07,29.77-11.08a.5.5,0,0,1,.1,1c-.18,0-17.62,1.86-29.26,10.88A.5.5,0,0,1,102.67,204.17Z" style="fill:#263238"></path><path d="M203.13,197.83a.53.53,0,0,1-.24-.06c-16.79-9.15-42-7.51-42.28-7.49a.5.5,0,0,1-.07-1c.26,0,25.79-1.68,42.83,7.61a.51.51,0,0,1,.2.68A.49.49,0,0,1,203.13,197.83Z" style="fill:#263238"></path><path d="M192.58,204.17a.51.51,0,0,1-.31-.11c-11.63-9-29.08-10.86-29.25-10.88a.5.5,0,0,1-.45-.55.5.5,0,0,1,.55-.44c.17,0,17.9,1.88,29.76,11.08a.5.5,0,0,1,.09.7A.5.5,0,0,1,192.58,204.17Z" style="fill:#263238"></path><path d="M165.36,167c4.64-.56,12.45,2.84,10.63,5.74S158.64,167.83,165.36,167Z" style="fill:#263238"></path><path d="M148.52,165.61c-4.59-.92-12.63,1.87-11,4.9S155.15,166.94,148.52,165.61Z" style="fill:#263238"></path><path d="M184.75,167.32a64,64,0,0,1,34.87,16.4,49.57,49.57,0,0,1-25.71-.09C186.59,178.48,183.27,173.05,184.75,167.32Z" style="fill:#407BFF"></path><path d="M184.75,167.32a64,64,0,0,1,34.87,16.4,49.57,49.57,0,0,1-25.71-.09C186.59,178.48,183.27,173.05,184.75,167.32Z" style="opacity:0.30000000000000004"></path></g></svg>